<?xml version="1.0" encoding="UTF-8" standalone="no"?>
<!-- Created with Inkscape (http://www.inkscape.org/) -->

<svg
   xmlns:svg="http://www.w3.org/2000/svg"
   xmlns="http://www.w3.org/2000/svg"
   xmlns:xlink="http://www.w3.org/1999/xlink"
   version="1.1"
   width="1400"
   height="700"
   id="svg2">
  <defs
     id="defs72" />
  <path
     d="M 0,0 L 1400,0 L 1400,700 L 0,700 L 0,0 z"
     id="rect4"
     style="fill:#006400" />
  <path
     d="M 0,100 L 1400,100 L 1400,600 L 0,600 L 0,100 z"
     id="rect6"
     style="fill:#ffd200" />
  <path
     d="M 0,200 L 1400,200 L 1400,500 L 0,500 L 0,200 z"
     id="rect8"
     style="fill:#d40000" />
  <path
     d="M 0,0 L 0,700 L 0,700 L 25.447917,700 L 425.46876,400 L 1400,400 L 1400,300 L 425.46876,300 L 25.447917,0 L 0,0 z"
     id="rect10" />
  <path
     d="M 0,0 L 466.66668,350 L 0,700"
     id="path14"
     style="fill:#ffffff" />
  <path
     d="M 177.53355,174.02494 L 269.96509,458.49994 L 27.97619,282.68475 H 327.09098 L 85.102,458.49994 z"
     id="path3554"
     style="fill:#d40000;fill-opacity:1" />
  <path
     d="M 137.94926,422.76504 L 154.28341,419.7952 L 184.57582,418.60726 L 195.71273,419.6467 L 220.65943,423.80449 L 222.58982,421.28012 L 222.58982,403.31256 L 225.41118,387.86937 L 230.6084,372.1292 L 235.95412,359.65585 L 242.93326,346.73703 L 254.36716,349.55838 L 257.337,349.55838 L 257.63399,347.331 L 233.72674,326.83907 L 208.63156,307.68358 L 172.54795,280.658 L 169.28112,279.76704 L 165.27183,251.55352 L 162.45048,242.94097 L 158.73817,239.67414 L 151.46206,237.29827 L 143.44348,237.59525 L 139.87966,239.67414 L 132.15807,241.45605 L 128.14878,242.05002 L 125.47592,245.16836 L 125.17893,249.17765 L 136.31585,249.47463 L 139.1372,250.66257 L 138.84022,251.85051 L 132.45505,252.74146 L 129.48521,253.63241 L 133.04902,256.30527 L 136.61283,257.6417 L 141.36459,259.42361 L 142.25554,262.54195 L 142.70102,305.75318 L 140.17665,312.43533 L 139.28569,324.90867 L 142.998,339.90639 L 133.64299,350.44933 L 128.44576,359.95284 L 127.55481,365.89252 L 124.73346,371.68372 L 124.28798,375.39603 L 126.21838,379.25682 L 133.34601,403.01558 L 137.05831,422.46806 L 137.94926,422.76504 z"
     id="path3941"
     style="fill:#ffcc00" />
  <path
     d="M 146.59375,236.53125 C 143.73522,236.52947 142.3634,237.02329 139.53125,238.5625 C 136.97455,239.95203 133.94182,240.875 131.875,240.875 C 127.67356,240.875 124.28125,243.89069 124.28125,247.65625 L 124.28125,250.15625 L 130.40625,249.96875 C 147.9626,250.55601 131.93419,252.17438 130.65625,252.40625 C 126.2975,253.19705 131.62314,256.75226 136.75,258.46875 C 142.26666,260.31575 142.03125,259.24696 142.03125,283.4375 C 142.03125,303.29963 141.85911,306.10955 140.34375,310.6875 C 138.11927,317.40773 138.11927,327.39591 140.34375,333.96875 C 141.24283,336.62534 141.98484,339.10171 142,339.46875 C 142.01517,339.83577 139.40181,343.0843 136.1875,346.6875 C 130.38233,353.19501 126.8125,360.1792 126.8125,365.0625 C 126.8125,366.18679 126.05442,368.0844 125.125,369.3125 C 122.98093,372.1456 122.91934,377.02332 125,378.875 C 127.15838,380.79586 136.07004,415.19643 136.09375,421.6875 C 136.1024,424.05454 136.52537,424.04011 150.0625,421.3125 C 160.99116,419.11048 186.82765,418.64279 199.90625,420.40625 C 205.94747,421.22082 212.97535,422.40628 215.53125,423.0625 C 223.58109,425.12937 223.13727,425.55477 223.15625,415.84375 C 223.1856,400.82921 225.92213,386.55007 231.71875,371.28125 C 234.35576,364.33512 241.28735,350.22981 243.125,348.0625 C 243.30665,347.84825 246.25904,348.39387 249.6875,349.28125 C 256.70172,351.09671 258.625,350.75773 258.625,347.71875 C 258.625,345.97887 251.46502,340.00933 216.40625,312.5625 C 192.78336,294.06859 173.40737,279.5 172.4375,279.5 C 171.48391,279.5 170.52103,279.01003 170.3125,278.40625 C 170.10398,277.80249 168.99022,270.65291 167.8125,262.5 C 166.63479,254.3471 165.04425,246.29625 164.28125,244.625 C 162.05036,239.73856 157.43104,237.14775 150.0625,236.65625 C 148.66804,236.56323 147.54659,236.53184 146.59375,236.53125 z M 146.84375,238.28125 C 147.76307,238.27012 148.79817,238.30864 150.0625,238.375 C 161.13058,238.95593 163.22458,242.01012 166.125,261.6875 C 167.25069,269.32456 168.17758,276.38672 168.1875,277.40625 C 168.20039,278.7309 166.66216,280.29755 162.78125,282.90625 C 157.06645,286.74768 149.69098,293.75449 146.09375,298.71875 L 143.9375,301.65625 L 143.53125,294.75 C 143.29412,290.95353 143.29419,282.09379 143.53125,275.0625 C 144.02122,260.5302 143.64052,259.09551 138.875,257.5 C 134.98466,256.19748 129.9069,254.79706 131.40625,253.90625 C 133.04324,252.93366 134.55833,253.62867 138.71875,252.59375 C 140.19211,252.22726 140.11216,252.28948 139.875,251.03125 C 139.4478,248.76474 137.23489,247.72457 130.96875,248.0625 C 126.04779,248.32788 125.41659,248.20018 125.75,246.875 C 126.42396,244.19625 129.20907,242.43688 133.34375,242.03125 C 135.56997,241.81284 138.81671,240.82675 140.59375,239.84375 C 142.56037,238.75589 144.08579,238.31464 146.84375,238.28125 z M 171.625,281.40625 C 171.85758,281.40241 172.07523,281.40513 172.28125,281.4375 C 175.11771,281.88318 256.9375,345.85316 256.9375,347.625 C 256.9375,348.3263 256.28199,348.88767 255.46875,348.875 C 254.6555,348.86235 233.83141,342.96433 209.21875,335.78125 C 169.88514,324.30192 164.2293,322.42685 162.53125,320.375 C 160.11805,317.45897 160.0374,313.00626 162.3125,310 C 163.24193,308.77189 164,307.26236 164,306.625 C 164,304.68188 159.82959,309.63797 159.03125,312.53125 C 158.09801,315.91344 159.83679,321.57279 162.375,323.40625 C 163.37801,324.13078 170.87526,326.70738 179.03125,329.125 C 192.95106,333.25116 193.88595,333.69548 194.625,336 C 196.3994,341.53285 190.5534,347.95585 182.09375,349.78125 C 179.36575,350.36989 175.89626,351.97595 173.5,353.78125 C 163.97409,360.9579 157.34124,365.19839 151.78125,367.59375 C 148.51179,369.00231 145.35367,370.59397 144.78125,371.15625 C 144.20883,371.71854 143.3742,374.27902 142.90625,376.84375 C 141.91252,382.29004 141.49105,383.125 139.875,383.125 C 138.93965,383.125 138.85588,382.63587 139.5,380.875 C 140.68802,377.62719 140.55833,373.46875 139.25,373.46875 C 138.55796,373.46875 138.125,374.62593 138.125,376.5625 C 138.125,378.25304 137.64786,380.11499 137.03125,380.71875 C 136.10454,381.62616 135.98764,380.95532 136.375,376.78125 C 136.63272,374.00392 136.5201,371.71875 136.125,371.71875 C 135.367,371.71875 133.87783,375.92785 133.34375,379.625 C 133.03061,381.79281 133.01206,381.77523 132.3125,379.21875 C 131.76618,377.22222 132.03139,375.88315 133.4375,373.34375 C 134.44041,371.5325 135.28125,368.89805 135.28125,367.46875 C 135.28125,365.31561 136.8682,363.23324 144.65625,355.34375 C 149.82611,350.10653 155.84636,343.60799 158.03125,340.90625 C 161.81178,336.23138 162.011,335.7352 161.875,331 C 161.7964,328.26337 161.48,325.80404 161.1875,325.5 C 160.20003,324.47365 158.88427,329.76434 159.40625,332.65625 C 159.87812,335.27064 159.39065,336.16156 153.9375,342.59375 C 150.64581,346.47643 145.05466,352.33038 141.53125,355.625 C 135.04085,361.69391 132.71875,364.97398 132.71875,368.0625 C 132.71875,368.99978 131.9915,371.47832 131.09375,373.5625 C 130.19599,375.64668 129.69988,377.77685 129.96875,378.28125 C 130.26974,378.84592 130.0553,378.80858 129.4375,378.21875 C 128.70595,377.5203 128.64715,376.22627 129.25,373.4375 C 129.70476,371.33379 129.8918,369.30239 129.65625,368.90625 C 128.74988,367.38196 127.68732,369.33891 127.15625,373.5 C 126.85173,375.88602 126.28101,377.63581 125.875,377.375 C 124.65276,376.58986 125.03843,372.24649 126.53125,370.03125 C 127.30055,368.88966 128.26057,366.1701 128.65625,363.96875 C 129.76597,357.79475 132.41871,352.8941 138.3125,346.21875 C 141.28288,342.85449 143.71875,339.9764 143.71875,339.8125 C 143.71875,339.64862 142.92701,337.16545 141.96875,334.3125 C 139.75307,327.71586 139.60618,317.6699 141.625,311.5625 C 143.75245,305.12645 148.13561,298.75503 155.0625,292.03125 C 161.76647,285.52387 168.13627,281.46381 171.625,281.40625 z M 196.65625,335.03125 A 1.4323617,0.95490783 0 0 1 198.3125,335.96875 A 1.4323617,0.95490783 0 0 1 195.46875,335.96875 A 1.4323617,0.95490783 0 0 1 196.65625,335.03125 z M 200.78125,335.5625 A 1.4323617,0.95490783 0 0 1 200.8125,335.5625 A 1.4323617,0.95490783 0 0 1 202.5,336.53125 A 1.4375,0.95833336 0 0 1 199.625,336.53125 A 1.4323617,0.95490783 0 0 1 200.78125,335.5625 z M 205.15625,336.375 A 1.4323617,0.95490783 0 0 1 205.3125,336.375 A 1.4323617,0.95490783 0 0 1 206.84375,337.34375 A 1.4323617,0.95490783 0 0 1 204,337.34375 A 1.4323617,0.95490783 0 0 1 205.15625,336.375 z M 209.09375,337.1875 A 1.4323617,0.95490783 0 0 1 209.28125,337.1875 A 1.4323617,0.95490783 0 0 1 210.8125,338.15625 A 1.4375,0.95833336 0 0 1 207.9375,338.15625 A 1.4323617,0.95490783 0 0 1 209.09375,337.1875 z M 198.59375,338.15625 A 1.4323617,0.95490783 0 0 1 198.625,338.15625 A 1.4323617,0.95490783 0 0 1 200.3125,339.125 A 1.4375,0.95833336 0 0 1 197.4375,339.125 A 1.4323617,0.95490783 0 0 1 198.59375,338.15625 z M 202.71875,338.84375 A 1.4323617,0.95490783 0 0 1 204.40625,339.78125 A 1.4375,0.95833336 0 0 1 201.53125,339.78125 A 1.4323617,0.95490783 0 0 1 202.71875,338.84375 z M 211.375,339.1875 A 1.4323617,0.95490783 0 0 1 213.0625,340.125 A 1.4375,0.95833336 0 0 1 210.1875,340.125 A 1.4323617,0.95490783 0 0 1 211.375,339.1875 z M 206.8125,339.25 A 1.4323617,0.95490783 0 0 1 208.5,340.1875 A 1.4375,0.95833336 0 0 1 205.625,340.1875 A 1.4323617,0.95490783 0 0 1 206.8125,339.25 z M 215.25,340.21875 C 215.37726,340.03141 221.37508,341.55652 228.5625,343.625 L 241.625,347.375 L 239.09375,351.875 C 237.70079,354.341 235.94285,357.64896 235.1875,359.21875 C 233.65394,362.40595 233.10964,362.46132 225.25,360.65625 C 216.55774,358.65995 202.81767,356.76389 188.84375,355.625 L 175.40625,354.53125 L 180.46875,352.625 C 183.257,351.56838 187.26592,349.75778 189.375,348.59375 C 192.68396,346.76751 194.01817,346.53267 199.09375,346.90625 C 206.6301,347.46093 211.70927,346.0706 213.59375,342.9375 C 214.38128,341.62817 215.12273,340.40609 215.25,340.21875 z M 200.5,341.15625 A 1.4323617,0.95490783 0 0 1 200.53125,341.15625 A 1.4323617,0.95490783 0 0 1 202.21875,342.125 A 1.4375,0.95833336 0 0 1 199.34375,342.125 A 1.4323617,0.95490783 0 0 1 200.5,341.15625 z M 209.90625,341.15625 A 1.4323617,0.95490783 0 0 1 209.9375,341.15625 A 1.4323617,0.95490783 0 0 1 211.625,342.125 A 1.4375,0.95833336 0 0 1 208.75,342.125 A 1.4323617,0.95490783 0 0 1 209.90625,341.15625 z M 196.40625,341.28125 A 1.4323617,0.95490783 0 0 1 196.59375,341.28125 A 1.4323617,0.95490783 0 0 1 198.125,342.25 A 1.4375,0.95833336 0 0 1 195.25,342.25 A 1.4323617,0.95490783 0 0 1 196.40625,341.28125 z M 205.3125,341.4375 A 1.4323617,0.95490783 0 0 1 207,342.375 A 1.4375,0.95833336 0 0 1 204.125,342.375 A 1.4323617,0.95490783 0 0 1 205.3125,341.4375 z M 194.375,343.40625 A 1.4323617,0.95490783 0 0 1 194.40625,343.40625 A 1.4323617,0.95490783 0 0 1 196.0625,344.375 A 1.4323617,0.95490783 0 0 1 193.21875,344.375 A 1.4323617,0.95490783 0 0 1 194.375,343.40625 z M 198.46875,343.46875 A 1.4323617,0.95490783 0 0 1 198.625,343.46875 A 1.4323617,0.95490783 0 0 1 200.15625,344.4375 A 1.4323617,0.95490783 0 0 1 197.3125,344.4375 A 1.4323617,0.95490783 0 0 1 198.46875,343.46875 z M 202.84375,343.625 A 1.4323617,0.95490783 0 0 1 204.53125,344.5625 A 1.4375,0.95833336 0 0 1 201.65625,344.5625 A 1.4323617,0.95490783 0 0 1 202.84375,343.625 z M 207.46875,343.75 A 1.4323617,0.95490783 0 0 1 207.5,343.75 A 1.4323617,0.95490783 0 0 1 209.15625,344.71875 A 1.4323617,0.95490783 0 0 1 206.3125,344.71875 A 1.4323617,0.95490783 0 0 1 207.46875,343.75 z M 173.625,357.21875 C 179.34329,357.03595 199.30691,358.48353 208.78125,359.90625 C 217.11979,361.15842 231.72606,363.86944 232.21875,364.25 C 232.34158,364.34486 231.09031,368.34199 229.40625,373.125 C 227.72219,377.908 226.18678,382.37347 226,383.03125 C 225.74516,383.92879 224.7189,384.06826 221.875,383.625 C 207.98989,381.46079 167.98231,381.65699 152.59375,383.96875 C 143.84565,385.28294 142.56055,385.18716 143.3125,383.34375 C 143.65731,382.49847 144.38868,379.85259 144.9375,377.4375 L 145.9375,373.03125 L 155.21875,368.21875 C 160.32026,365.56217 166.00529,362.17624 167.84375,360.6875 C 169.68221,359.19876 171.60003,357.7214 172.125,357.40625 C 172.28924,357.30765 172.8081,357.24486 173.625,357.21875 z M 128.6875,380.9375 C 129.10397,380.93708 130.14543,381.41773 131.34375,382.1875 C 132.90891,383.19292 134.90668,384.02051 135.78125,384.03125 C 140.13486,384.08472 142.52733,390.21815 146.21875,410.8125 C 146.73822,413.71059 147.3492,416.92181 147.5625,417.96875 C 147.90238,419.63705 147.42534,420.01056 143.6875,420.84375 C 138.96284,421.8969 137.8125,421.97403 137.8125,421.34375 C 137.8125,419.57508 133.11489,398.47545 131.0625,391.03125 C 129.6645,385.96062 128.5,381.49643 128.5,381.09375 C 128.5,381.04342 128.52443,380.99184 128.5625,380.96875 C 128.59581,380.94855 128.628,380.93756 128.6875,380.9375 z M 176.375,384.03125 L 181.15625,384.03125 L 179.5625,385.84375 C 176.7323,389.09428 175.3804,389.40289 173.40625,387.21875 C 172.41271,386.11951 171.59375,384.95613 171.59375,384.625 C 171.59375,384.29388 173.74708,384.03125 176.375,384.03125 z M 186.5,384.03125 L 191.03125,384.03125 L 195.5625,384.03125 L 193.5625,386.21875 C 191.11234,388.92957 190.95016,388.92957 188.5,386.21875 L 186.5,384.03125 z M 200.1875,384.03125 L 202.28125,384.03125 C 203.42028,384.03125 205.51225,384.26622 206.9375,384.5625 L 209.53125,385.09375 L 207.125,387.1875 C 205.80692,388.34027 204.60278,389.27673 204.4375,389.25 C 204.27223,389.22327 203.23717,388.01606 202.15625,386.59375 L 200.1875,384.03125 z M 214.28125,384.65625 L 216.375,385.1875 C 217.53678,385.4913 220.01616,385.77225 221.875,385.78125 L 225.25,385.78125 L 222.71875,387.9375 C 221.32462,389.12528 219.98034,390.10763 219.71875,390.125 C 219.45716,390.14238 218.1149,388.9242 216.75,387.40625 L 214.28125,384.65625 z M 163.9375,384.9375 C 164.18035,384.94434 164.33216,384.95526 164.375,385 C 164.54636,385.17894 163.83991,386.37786 162.78125,387.65625 L 160.84375,389.96875 L 158.40625,387.96875 L 155.96875,385.9375 L 160.03125,385.3125 C 161.70143,385.05217 163.20896,384.91697 163.9375,384.9375 z M 167.78125,385.1875 C 167.78163,385.10425 168.99555,386.16311 170.46875,387.53125 L 173.15625,390.03125 L 168.1875,390.3125 L 163.21875,390.59375 L 165.5,387.96875 C 166.75532,386.52211 167.78093,385.27074 167.78125,385.1875 z M 197.96875,385.1875 C 198.32484,385.21137 198.66877,385.41466 199.09375,385.78125 C 199.82981,386.41619 200.79431,387.67749 201.25,388.5625 C 201.96438,389.94989 201.74779,390.13799 199.71875,390.0625 C 198.42445,390.01437 196.48728,389.72234 195.40625,389.40625 L 193.4375,388.84375 L 195.59375,386.75 C 196.7327,385.63786 197.37527,385.14771 197.96875,385.1875 z M 183.96875,385.21875 C 184.90372,385.08982 185.6307,385.78727 186.625,387.34375 C 187.84221,389.24917 187.79868,389.27743 183.3125,389.25 L 178.78125,389.21875 L 181.1875,387.03125 C 182.37879,385.94238 183.24155,385.31903 183.96875,385.21875 z M 212.25,385.53125 L 214.3125,387.5625 C 216.57195,389.76874 216.97069,391.11588 215.3125,390.875 C 214.73162,390.7906 212.63495,390.59133 210.65625,390.40625 L 207.0625,390.0625 L 209.65625,387.8125 L 212.25,385.53125 z M 153.6875,386.65625 C 154.07803,386.65625 155.28577,387.61072 156.34375,388.78125 L 158.25,390.90625 L 154.15625,391.46875 C 151.90133,391.77244 149.30442,392.18093 148.375,392.375 C 147.11933,392.6372 147.49861,391.94138 149.84375,389.6875 C 151.57958,388.01922 153.29697,386.65625 153.6875,386.65625 z M 147.4375,386.78125 C 147.716,386.77664 147.96964,386.80838 148.1875,386.84375 C 149.57179,387.0685 149.43981,387.42273 147.1875,389.65625 L 144.59375,392.21875 L 143.84375,390.09375 C 143.21723,388.35118 143.39956,387.85435 144.84375,387.28125 C 145.5676,386.99399 146.60201,386.79508 147.4375,386.78125 z M 224.03125,389.71875 C 224.43214,389.69407 224.51676,390.01833 224.28125,390.65625 C 223.7684,392.04534 222.28125,392.38752 222.28125,391.125 C 222.28125,390.69366 222.85785,390.14358 223.53125,389.875 C 223.73583,389.7934 223.89762,389.72698 224.03125,389.71875 z M 188.5,392.375 C 201.2795,392.375 214.30072,392.69304 217.4375,393.09375 C 222.7146,393.76787 223.125,393.97069 223.125,395.9375 C 223.125,398.28 222.4124,398.39219 215.53125,397.15625 C 213.44006,396.78064 205.05381,395.98321 196.875,395.375 C 182.67887,394.31935 165.083,394.89 149.40625,396.90625 C 146.1703,397.32245 145.40625,397.16343 145.40625,396.09375 C 145.40625,393.82918 162.35149,392.375 188.5,392.375 z M 171.3125,397.1875 L 175.8125,397.1875 L 180.34375,397.1875 L 178.34375,399.375 C 175.89358,402.08582 175.73143,402.08582 173.28125,399.375 L 171.3125,397.1875 z M 182.90625,397.1875 L 185.28125,399.53125 C 186.58661,400.83113 187.65625,402.03636 187.65625,402.1875 C 187.65625,402.33863 185.4866,402.46875 182.84375,402.46875 L 178.03125,402.46875 L 180.46875,399.8125 L 182.90625,397.1875 z M 186.5,397.1875 L 191.03125,397.1875 L 195.5625,397.1875 L 193.5625,399.375 C 191.11234,402.08582 190.95016,402.08582 188.5,399.375 L 186.5,397.1875 z M 165.125,397.3125 C 165.52094,397.33816 165.16499,398.00577 163.96875,399.6875 C 162.88121,401.21644 161.73382,402.46875 161.4375,402.46875 C 161.1412,402.46875 160.02892,401.45755 158.9375,400.25 L 156.9375,398.0625 L 159.96875,398.0625 C 161.63823,398.0625 163.66295,397.79014 164.46875,397.46875 C 164.7642,397.35091 164.99302,397.30395 165.125,397.3125 z M 168.53125,398.0625 L 170.6875,400.03125 C 171.87884,401.11766 172.97626,402.08216 173.125,402.15625 C 173.27374,402.23034 171.31546,402.42633 168.75,402.59375 L 164.0625,402.90625 L 166.3125,400.46875 L 168.53125,398.0625 z M 197.46875,398.0625 L 199.90625,400.71875 C 202.56232,403.60031 202.29591,403.72559 196.25,402.5625 L 193.40625,402.03125 L 195.4375,400.03125 L 197.46875,398.0625 z M 200.875,398.0625 L 204.8125,398.0625 C 209.07955,398.0625 209.62969,398.73217 207.21875,401 C 205.23633,402.86474 205.22562,402.85066 202.875,400.25 L 200.875,398.0625 z M 149.84375,398.96875 C 151.76427,398.95128 151.70676,399.13308 149.21875,401.5625 C 147.31127,403.42509 147.0805,403.46556 146.5625,402.0625 C 145.94205,400.38197 147.42956,398.99071 149.84375,398.96875 z M 214.5,399.21875 C 215.14846,399.21338 216.48125,399.36064 217.96875,399.625 L 221.59375,400.25 L 219.5,402.28125 L 217.4375,404.3125 L 215.625,401.9375 C 214.63305,400.62675 213.94175,399.43924 214.09375,399.28125 C 214.13175,399.24175 214.28385,399.22054 214.5,399.21875 z M 154.5625,400 C 155.07465,399.9127 155.52823,400.33036 156.40625,401.15625 C 158.08135,402.73189 158.102,402.87629 156.65625,403.46875 C 155.81268,403.81443 153.97731,404.12231 152.59375,404.15625 L 150.09375,404.21875 L 152.375,401.84375 C 153.49771,400.67682 154.05035,400.0873 154.5625,400 z M 211.375,400.46875 C 211.96205,400.43617 212.42811,400.9381 213.25,402.09375 L 214.78125,404.21875 L 211.28125,404.21875 C 209.00191,404.21875 207.91079,403.85546 208.125,403.1875 C 208.30538,402.62507 209.18979,401.67407 210.09375,401.0625 C 210.62765,400.70129 211.02277,400.4883 211.375,400.46875 z M 222.0625,402.71875 C 222.24916,402.76145 222.28125,403.06682 222.28125,403.625 C 222.28125,405.26453 220.91656,406.33976 220.25,405.21875 C 219.99065,404.7826 220.33931,403.94064 221.03125,403.34375 C 221.54271,402.90255 221.87584,402.67605 222.0625,402.71875 z M 178.84375,404.71875 C 193.29446,404.70275 209.36538,405.66267 218.6875,407.40625 L 221.4375,407.9375 L 221.4375,415.28125 C 221.4375,420.65396 221.17649,422.61951 220.40625,422.53125 C 219.82536,422.46468 216.10628,421.70056 212.15625,420.8125 C 200.23781,418.13292 186.76315,417.09538 171.59375,417.71875 C 163.92605,418.03386 155.90281,418.61005 153.75,419 L 149.8125,419.71875 L 148.84375,413.59375 C 148.30972,410.23267 148.00812,407.37271 148.15625,407.21875 C 148.30437,407.06479 152.00871,406.43761 156.40625,405.84375 C 162.06769,405.07921 170.17333,404.72835 178.84375,404.71875 z"
     id="path7125"
     style="fill:#000000" />
  <path
     d="M 207.9375,362.9375 C 202.99681,362.9375 199.46875,366.58344 199.46875,371.71875 C 199.46875,379.7201 208.46364,383.5945 213.90625,377.9375 C 219.34886,372.2805 215.63562,362.9375 207.9375,362.9375 z M 207.90625,365 C 211.55677,364.85552 214.6875,367.6959 214.6875,371.8125 C 214.6875,376.63049 209.11173,379.98978 204.8125,377.75 C 200.21458,375.35461 200.55633,367.65487 205.34375,365.59375 C 206.21072,365.22049 207.06382,365.03334 207.90625,365 z"
     id="path7067"
     style="fill:#000000;fill-opacity:1" />
  <use
     transform="translate(-33.441419,-1)"
     id="use3895"
     x="0"
     y="0"
     width="1400"
     height="700"
     xlink:href="#path7067" />
  <path
     d="M 146.6875,242.125 A 2.8712659,2.9394735 0 0 0 144.03125,245.0625 A 2.875,2.9432963 0 1 0 149.78125,245.0625 A 2.8712659,2.9394735 0 0 0 146.6875,242.125 z M 146.875,243.15625 A 1.9325955,1.905303 0 0 1 148.75,245.0625 A 1.9375,1.9101382 0 1 1 144.875,245.0625 A 1.9325955,1.905303 0 0 1 146.875,243.15625 z"
     id="path2254"
     style="fill:#000000;fill-opacity:1" />
</svg>
